<svg xmlns="http://www.w3.org/2000/svg" xmlns:xlink="http://www.w3.org/1999/xlink" viewBox="0 0 233.9 82.8"><defs><path id="a" d="M0 0h233.9v82.8H0z"/></defs><clipPath id="b"><use xlink:href="#a" overflow="visible"/></clipPath><path clip-path="url(#b)" fill="#231F20" d="M62.2 62.2c-1.9-.3-3.2-1.7-3.4-3.6-.2-2.1 1.5-3.8 3.7-4-.1-1.7-.1-2.9-.1-3.4.3-2.6 2.7-4.8 5.5-4.6 1.4.2 2.6.8 3.4 1.8.4.5.7 1 .9 1.7.2.6.3 2.1.2 4.5.9-.1 1.6-.1 2 0 2.1.4 3.5 2.4 3.1 4.5-.4 2-2.3 3.5-4.4 3.1h-.7V71c0 1.3.6 2.2 1.6 2.4 2.6.4 4.2 2.9 3.9 5.4-.6 2.5-2.5 4.3-5.8 3.9-3.8-.6-10.2-2.8-10.1-10.4V62.2zm-47.8-52c5.9.2 11.9 1.7 12 7.7 0 2.4-2.1 4.7-4.8 4.7-1.8 0-3.4-.9-4.2-2.6-.5-.6-1.3-.9-2.5-.9-3.4 0-4.4 2.6-4.4 5.3 0 4.6 2.3 6.1 5.3 6.1 1.3 0 2.3-.4 4.4-1 .5-.2.9-.2 1.4-.2 2.2 0 4.4 1.9 4.4 4.4 0 4.9-7.5 5.7-10.8 5.7C7.3 39.5 0 34.2 0 24.9 0 17 5.7 10.2 14.4 10.2"/><path clip-path="url(#b)" fill="#231F20" d="M27.9 7.6c-1.9-.3-3-1.7-3.2-3.3-.2-2.1 1.3-4 3.4-4.3h5.8c2.4 0 4.4 1.9 4.4 4.4V27c0 1.9.1 2.8.7 3.3 1.7.8 2.7 2.5 2.6 4.4-.2 2.6-2.3 4.7-4.9 4.6-4.5-.4-8.9-2.3-8.9-11.7v-20zm26.7 2.6c3.5 0 6.4 1.1 8.5 3.1 2.1 1.9 3.9 4.6 3.9 8.4 0 2.6-2 4.7-4.7 4.7H51.6v.3c.8 3.2 3 4 4.9 4 2.3 0 4-1.1 5.2-1.1 2.2 0 4.4 1.8 4.4 4.4 0 3.6-4.5 5.6-10.4 5.6-10 0-14.5-7.5-14.5-14.9-.1-7.6 4.9-14.5 13.4-14.5m2.1 11.7c0-2.4-.2-4.5-2.4-4.5-1.8.1-2.3 2.1-2.5 4.5h4.9z"/><path clip-path="url(#b)" fill="#231F20" d="M79.7 22.2h1.5v-1.6c0-1.5-1.3-2-2.8-2-1.9 0-3.4 1.1-5.5 1.1s-4.1-1.8-4.1-4.1c0-3.7 4.9-5.4 10.8-5.4 7.7 0 11.9 4.1 11.9 11.7v7.8c0 .6.1 1 .4 1.3 1.5.7 2.5 2 2.5 3.6 0 2.4-1.8 4.2-4 4.2h-4.7c-2.4 0-3.6-1.9-3.5-3.2l.1-.8H82c-.6 1.7-2.8 4.5-7.3 4.5s-8.4-3.3-8.4-8.1c.1-8 9.4-9 13.4-9m-1.5 10.2c1.4 0 3.1-1.5 3.1-4.3v-1.3h-.6c-3.2 0-4.3 1.8-4.3 3.4 0 1.3.8 2.2 1.8 2.2m30.7-1.2c1.7.4 2.8 1.9 3 3.6 0 2.1-1.6 3.8-3.7 4h-8.7c-2.1 0-3.9-1.6-3.9-3.9 0-1.8 1.2-3.3 2.9-3.8V19.9c0-.7-.2-1.1-.5-1.3-1.6-.6-2.7-1.9-2.7-3.7 0-2.2 1.8-4 4-4h5.5c2.5 0 3.7 1.2 3.7 3.1v1.5c.8-2 3.1-5.3 8.4-5.3 4.3 0 8.7 2.2 8.7 10.3v10.6c1.9.5 3 1.9 3 3.8 0 2.1-1.8 3.9-3.9 3.9h-5.1c-2.4 0-4.4-1.9-4.4-4.4V22.8c0-2.1-.6-2.8-2-2.8-3.1 0-4.2 3.5-4.2 6.8v4.4zM3.6 62.1C1.7 61.5.5 59.9.7 58c.2-2.1 2.1-3.7 4.2-3.5h7.6c1.3.3 2.2 1 2.8 2.3.8 2.1 0 4.4-2.1 5.3l1.3 11.6h.2L17.2 59c.2-2.4 2-4.3 4.5-4.5 2.7-.2 5 1.7 5.4 4.5l2.4 14.8h.3L31 62.1c-1.2-.6-2-1.5-2.3-2.9-.6-2.1.9-4.3 3.1-4.8h8.4c1.6.2 2.9 1.2 3.3 2.9.6 2.1-.8 4.2-2.9 4.7l-2.9 14.4c-.6 3.2-2.9 5.5-6.2 6-3.9.5-7.7-2.3-8.2-6.2l-1.2-9H22l-1.1 9.1c-.6 3.3-3 5.7-6.3 6.1-3.9.6-7.6-2.3-8.2-6.2L3.6 62.1zm49.6-7.7c2.5 0 4.4 1.9 4.4 4.4v15.8c1.7.6 2.8 1.5 3 3.2.4 2.1-1 4.1-3.2 4.5h-9.9c-1.5-.4-2.6-1.4-3-2.9-.6-2.1.6-4.2 2.7-4.8V62.1c-1.6-.4-2.7-1.5-3.1-3.1-.4-2.1 1.2-4.1 3.2-4.5h5.9zm-2.8-3.1c-2.1 0-3.9-1.8-3.9-3.9 0-2.1 1.8-3.9 3.9-3.9h2.2c2.1 0 3.9 1.8 3.9 3.9 0 2.1-1.8 3.9-3.9 3.9h-2.2zm42.9 23.3c1.7.4 3 2 3 3.8 0 1.9-1.2 3.5-3.2 3.9h-9.8c-1.8-.3-3.4-1.6-3.4-3.9 0-1.7 1.1-3.2 2.9-3.7V51.1c-1.9-.3-3.2-2-3.2-3.8 0-2.1 1.9-3.7 3.9-3.7h5.3c2.4 0 4.4 1.9 4.4 4.3V58c1.7-2.9 4.2-4.2 7.5-4.2 4.2 0 9.1 2.2 9.1 10.3v10.6c1.7.4 2.9 1.9 2.9 3.8 0 2.2-1.8 3.9-3.9 3.9h-6.4c-1.9 0-3-2.3-3-4.4V66.3c0-2.1-.5-2.7-1.9-2.7-3.2 0-4.3 3.5-4.3 6.8v4.2zm32-23.9c-1.9-.3-3-1.7-3.2-3.3-.2-2.1 1.3-4 3.4-4.3h5.8c2.4 0 4.4 1.9 4.4 4.4V70c0 1.9.1 2.8.7 3.3 1.7.8 2.7 2.5 2.6 4.4-.2 2.6-2.3 4.7-4.9 4.6-4.5-.4-8.9-2.3-8.9-11.7V50.7zm42.8 6.9c.3-2.1 2-3.4 4.3-3.4h5.8c2.4 0 4.4 1.9 4.4 4.4v1.8c0 .8-.7 1.5-1.6 1.5l1.9 7.7.8 4.5h.2l.8-4.5 1.9-7.7c-1 0-1.5-.7-1.5-1.4v-2.1c0-2.3 1.9-4.2 4.2-4.2h5.7c2.3-.1 4.1.8 4.5 2.9.6 2.1-.7 4.2-2.8 4.8-1.5 4.8-3 9.1-4.5 13.7-1.1 3.6-3.4 6.1-6.9 6.8-4.8.8-8.9-2.2-9.9-7-.8-2.2-1.9-5.6-2.8-8.4-.6-1.6-1.1-3.3-1.7-5.1-2-.6-3-2.5-2.8-4.3"/><path clip-path="url(#b)" fill="#231F20" d="M211.4 53.5c3.5 0 6.4 1.1 8.5 3.1 2.1 1.9 3.9 4.6 3.9 8.4 0 2.6-2 4.7-4.7 4.7h-10.8v.3c.8 3.2 3 4 4.9 4 2.3 0 4-1.1 5.2-1.1 2.2 0 4.4 1.8 4.4 4.4 0 3.6-4.5 5.6-10.4 5.6-10 0-14.5-7.5-14.5-14.9 0-7.6 4.9-14.5 13.5-14.5m2.1 11.7c0-2.4-.2-4.5-2.4-4.5-1.8.1-2.3 2.1-2.5 4.5h4.9zm-59.8 17c-2.5 0-5.1-1-7-2.9l-5.4-5.4c-2.1-2.3-3.1-5-3.1-8.1 0-1.2.2-2.4.5-3.5 1.1-3.8 4.1-6.9 8.1-8 2.2-.6 4.7-.1 6.9.6 2.3-.6 4.8-1.2 6.9-.5 4 1.1 7 4.2 8.1 8.2.3 1.1.4 2.2.4 3.4 0 2.9-.9 5.6-2.7 7.7l-.3.3-5.5 5.5c-1.9 1.8-4.4 2.7-6.9 2.7m-3.4-19.7c-.4 0-.8.1-1.1.2-.6.2-1.8.7-2.1 2.1-.1.3-.1.6-.1 1.1 0 .9.2 1.6.7 2.1l5.2 5.2c.5.5 1.2.5 1.7 0l5.4-5.4c.4-.5.6-1.2.6-2 0-.4 0-.7-.1-1-.4-1.4-1.4-1.9-2.1-2.1-.9-.3-1.9-.2-2.8.2l-1.7.7-1.7-.7c-.8-.3-1.3-.4-1.9-.4m79.5-4.9c-.6 0-1.1-.1-1.6-.3-.5-.2-.9-.5-1.3-.9s-.7-.8-.9-1.3c-.2-.5-.3-1-.3-1.6 0-.6.1-1.1.3-1.6.2-.5.5-.9.9-1.3s.8-.6 1.3-.9c.5-.2 1-.3 1.6-.3.6 0 1.1.1 1.6.3.5.2.9.5 1.3.9s.7.8.9 1.3c.2.5.3 1 .3 1.6 0 .6-.1 1.1-.3 1.6-.2.5-.5.9-.9 1.3s-.8.6-1.3.9c-.5.2-1 .3-1.6.3m0-.9c.4 0 .8-.1 1.2-.2.4-.1.7-.3 1-.6.3-.3.5-.6.6-.9.2-.4.2-.8.2-1.2v-.4c0-.4-.1-.9-.2-1.2-.2-.4-.4-.7-.6-.9-.3-.3-.6-.5-1-.6-.4-.1-.8-.2-1.2-.2-.4 0-.8.1-1.2.2-.4.1-.7.3-1 .6-.3.3-.5.6-.6.9-.2.4-.2.8-.2 1.2v.4c0 .4.1.9.2 1.2.2.4.4.7.6.9.3.3.6.5 1 .6.4.1.8.2 1.2.2m-.6-1.1h-.9v-4.1h1.9c.4 0 .7.1 1 .3.2.2.3.5.3.9 0 .6-.3 1-.8 1.2l1 1.7h-1l-.9-1.6h-.6v1.6zm.8-2.2c.4 0 .6-.2.6-.5v-.2c0-.4-.2-.5-.6-.5h-.8v1.2h.8z"/></svg>